<?xml version="1.0" standalone="no"?>
<!DOCTYPE svg PUBLIC "-//W3C//DTD SVG 20010904//EN"
 "http://www.w3.org/TR/2001/REC-SVG-20010904/DTD/svg10.dtd">
<svg version="1.0" xmlns="http://www.w3.org/2000/svg"
 width="308.000000pt" height="308.000000pt" viewBox="0 0 308.000000 308.000000"
 preserveAspectRatio="xMidYMid meet">
<metadata>
Created by potrace 1.14, written by Peter Selinger 2001-2017
</metadata>
<g transform="translate(0.000000,308.000000) scale(0.100000,-0.100000)"
fill="#000000" stroke="none">
<path d="M388 3057 c3 -12 12 -28 19 -36 10 -9 11 -17 3 -26 -8 -10 -7 -16 7
-24 13 -8 14 -10 3 -11 -10 0 -7 -5 8 -16 24 -17 29 -40 10 -47 -7 -3 -2 -6
12 -6 20 -1 22 -3 10 -11 -13 -9 -13 -11 0 -20 8 -5 11 -10 6 -10 -5 0 -1 -9
9 -20 15 -17 16 -22 4 -37 -9 -11 -10 -14 -1 -9 7 4 12 2 12 -4 0 -6 5 -8 12
-4 7 4 8 3 4 -5 -12 -19 -14 -61 -4 -67 4 -3 5 -10 2 -16 -4 -7 -2 -8 5 -4 6
4 8 13 4 19 -4 7 0 6 10 -2 9 -7 14 -17 12 -22 -8 -11 5 -60 14 -54 4 2 8 -2
8 -10 0 -8 -4 -12 -9 -9 -4 3 -8 0 -8 -5 0 -6 7 -11 16 -11 14 0 15 -3 3 -17
-7 -10 -9 -15 -5 -11 11 10 36 -23 28 -36 -3 -6 -7 -21 -8 -34 -3 -23 -2 -23
12 -6 12 17 13 17 8 2 -3 -10 -1 -18 5 -18 6 0 11 -9 11 -20 0 -11 4 -20 10
-20 5 0 7 -7 4 -15 -4 -8 -11 -12 -17 -8 -6 4 -7 1 -3 -6 5 -7 14 -10 22 -7
11 4 12 2 4 -14 -13 -25 -13 -30 4 -30 7 0 19 -7 26 -15 11 -13 10 -14 -6 -8
-17 6 -17 5 -5 -10 8 -10 11 -20 7 -24 -3 -3 3 -12 13 -19 21 -15 33 -71 17
-78 -6 -2 -2 -5 9 -5 17 -1 17 -3 5 -11 -13 -8 -12 -10 3 -10 10 0 15 -4 12
-10 -3 -5 -1 -10 4 -10 6 0 10 -3 10 -7 -4 -27 3 -63 11 -58 13 8 13 -8 0 -21
-6 -6 -5 -15 1 -24 9 -12 10 -12 5 3 -4 11 -2 16 5 11 6 -3 9 -15 6 -25 -6
-22 3 -24 23 -6 11 9 11 8 0 -8 -8 -11 -19 -24 -25 -28 -6 -4 -2 -7 9 -5 12 2
20 -4 21 -14 2 -10 -1 -18 -6 -18 -6 0 -7 -5 -4 -10 4 -6 11 -8 16 -5 5 3 6
-2 2 -11 -5 -13 -3 -15 8 -9 12 7 12 6 1 -7 -10 -13 -10 -18 -1 -24 8 -5 9 -3
4 6 -6 9 -4 11 4 6 7 -5 10 -14 7 -22 -3 -8 0 -14 6 -14 9 0 9 -3 0 -12 -10
-10 -7 -15 10 -26 13 -7 15 -11 6 -8 -12 3 -15 1 -11 -10 3 -7 11 -14 18 -14
8 0 10 -9 7 -26 -3 -19 -1 -25 7 -20 14 9 14 1 1 -24 -7 -13 -7 -21 0 -25 6
-4 7 -11 4 -17 -4 -7 -2 -8 5 -4 9 6 9 11 0 22 -8 10 -8 14 0 14 11 0 28 -55
23 -72 -1 -5 4 -8 11 -8 8 0 7 -4 -3 -10 -13 -8 -13 -10 2 -10 11 0 15 -5 12
-15 -4 -10 0 -15 12 -16 18 0 17 -1 -1 -9 -11 -5 -14 -9 -7 -9 7 -1 10 -6 7
-11 -4 -6 -3 -10 2 -9 20 3 27 -2 13 -11 -13 -9 -13 -11 -1 -19 18 -11 24 -44
8 -35 -7 3 -2 -3 9 -13 17 -15 20 -23 12 -38 -7 -12 -7 -16 0 -11 5 3 16 -1
23 -10 7 -8 8 -14 3 -12 -5 2 -9 -1 -9 -7 0 -5 5 -9 10 -7 6 2 5 -2 -2 -9 -14
-14 -6 -39 14 -39 8 0 11 -5 8 -10 -4 -6 -2 -17 5 -25 9 -10 8 -19 -1 -37 -11
-20 -11 -22 3 -10 18 14 26 7 33 -28 2 -12 0 -18 -6 -15 -5 4 -7 10 -4 15 3 5
1 11 -4 14 -16 10 -5 -26 11 -38 8 -6 14 -19 12 -28 -1 -10 1 -18 6 -18 4 0 6
-11 5 -25 -2 -14 1 -23 6 -19 5 3 9 0 9 -6 0 -6 5 -8 13 -4 8 5 8 2 -2 -9 -10
-13 -10 -17 -1 -17 7 0 10 -8 7 -20 -4 -14 0 -20 11 -20 15 0 15 -2 2 -10 -9
-6 -11 -10 -3 -10 7 0 10 -7 7 -15 -4 -9 1 -18 11 -21 13 -5 14 -9 3 -15 -8
-5 -8 -9 -2 -9 6 0 14 -13 17 -30 4 -17 12 -28 19 -26 7 1 10 1 6 -1 -12 -7
-10 -43 2 -43 6 0 10 -9 10 -20 0 -11 7 -23 15 -26 14 -6 13 -8 -2 -20 -14
-11 -14 -14 -3 -12 9 2 14 -3 12 -14 -2 -10 2 -18 9 -18 9 0 9 -3 0 -14 -10
-11 -8 -16 8 -21 12 -3 21 -10 21 -15 0 -5 -8 -7 -17 -3 -11 4 -8 -4 10 -20
23 -22 26 -30 17 -46 -7 -14 -7 -22 2 -27 7 -5 8 -3 3 6 -5 8 -4 11 3 7 14 -9
3 -49 -12 -40 -6 3 -7 2 -3 -3 5 -5 16 -9 24 -9 9 0 18 -6 21 -14 3 -8 0 -11
-7 -7 -7 5 -9 1 -5 -8 3 -9 11 -16 18 -16 6 0 4 -5 -4 -10 -13 -8 -13 -10 2
-10 9 0 20 -5 24 -12 4 -7 3 -8 -4 -4 -7 4 -12 1 -12 -9 0 -9 5 -13 11 -9 8 4
9 0 4 -15 -5 -17 -3 -20 12 -14 16 6 16 5 4 -10 -10 -13 -10 -17 -1 -17 9 0 9
-4 2 -13 -8 -9 -8 -17 0 -27 8 -12 9 -12 4 3 -3 10 -2 16 3 13 5 -3 11 -14 14
-25 3 -15 1 -18 -12 -14 -9 3 -4 -4 11 -14 20 -14 25 -22 17 -30 -8 -8 -5 -14
10 -23 12 -6 19 -15 16 -20 -3 -5 -1 -19 6 -31 7 -15 8 -19 0 -15 -7 5 -9 1
-5 -8 3 -9 10 -14 14 -11 5 3 11 1 14 -4 4 -5 1 -13 -5 -17 -8 -5 -9 -3 -4 6
5 9 4 11 -4 6 -9 -6 -9 -11 1 -24 11 -12 11 -16 0 -20 -9 -3 -3 -11 16 -22 16
-10 29 -25 29 -33 0 -9 -4 -14 -9 -11 -5 3 -5 10 -2 16 4 7 2 8 -5 4 -6 -4 -9
-12 -6 -17 8 -13 46 -32 44 -22 -3 20 2 27 11 13 8 -13 10 -13 10 2 0 9 5 20
12 24 7 5 8 3 3 -6 -6 -9 -4 -11 4 -5 8 5 9 11 3 17 -10 10 6 68 20 68 4 0 4
8 1 18 -6 15 -5 15 10 3 16 -13 17 -12 7 13 -6 18 -6 25 0 21 6 -3 10 -1 10 5
0 6 5 8 11 4 8 -4 8 0 0 15 -10 18 -9 22 14 31 14 5 25 12 25 16 0 3 -6 4 -13
1 -8 -3 -14 1 -14 8 0 8 5 13 10 12 5 -1 12 4 15 12 3 8 0 11 -7 7 -7 -5 -9
-1 -5 8 3 9 9 14 13 12 3 -2 15 8 25 22 11 14 14 22 8 18 -7 -4 -12 -1 -12 8
0 9 5 16 12 16 6 0 8 3 5 7 -4 3 1 12 11 20 16 14 16 14 -3 9 -19 -6 -19 -6
-1 9 10 8 22 12 26 10 4 -2 7 2 7 10 0 18 -13 20 -20 3 -4 -10 -6 -10 -6 0 -1
7 5 15 13 18 8 3 12 13 9 25 -4 13 0 19 12 19 12 0 16 6 12 19 -3 14 -1 18 9
14 9 -3 12 2 9 17 -2 13 2 34 10 49 8 14 14 22 15 16 0 -13 20 16 20 30 0 6
-5 3 -11 -5 -9 -13 -10 -13 -5 0 3 8 9 23 12 33 4 11 13 16 21 12 10 -3 13 -1
10 9 -3 8 0 17 7 19 10 4 12 -1 8 -16 -3 -12 -1 -19 3 -15 5 4 15 2 24 -5 14
-10 14 -10 3 5 -8 9 -11 22 -7 28 3 5 -1 13 -9 16 -19 7 -22 54 -3 54 9 0 8 3
-2 9 -9 6 -10 11 -2 15 6 4 15 4 21 1 6 -3 7 1 4 10 -4 8 1 26 10 39 8 13 13
33 11 44 -2 14 1 19 10 16 9 -4 13 2 11 20 -2 15 3 27 11 30 8 4 13 12 10 19
-2 6 3 18 12 25 12 10 13 12 1 6 -13 -7 -13 -5 -2 9 8 9 11 21 7 27 -3 5 1 10
9 10 10 0 13 6 9 17 -4 9 -2 14 3 10 9 -5 13 7 16 51 2 15 28 16 28 0 0 -6 3
-8 7 -5 3 4 -2 17 -13 29 -12 14 -13 18 -3 10 9 -6 18 -10 20 -7 3 2 5 -5 6
-15 1 -11 -3 -23 -9 -26 -6 -4 -5 -10 3 -15 11 -7 11 -9 -1 -9 -13 0 -13 -2
-1 -9 13 -8 13 -12 0 -27 -12 -16 -12 -17 1 -9 13 8 13 7 1 -8 -7 -9 -9 -17
-3 -17 11 0 11 -49 -1 -67 -5 -8 -4 -13 2 -13 6 0 11 -5 11 -11 0 -5 -5 -7
-12 -3 -7 4 -8 3 -4 -5 4 -6 2 -19 -6 -28 -8 -10 -8 -14 -1 -10 6 4 14 3 17
-2 4 -5 2 -13 -4 -16 -8 -5 -7 -12 2 -23 10 -12 10 -14 1 -8 -7 4 -13 2 -13
-3 0 -6 5 -11 12 -11 9 0 9 -3 0 -12 -18 -18 -15 -31 6 -24 15 5 15 4 2 -6 -9
-7 -15 -25 -15 -40 1 -15 -3 -24 -8 -21 -5 3 -7 0 -5 -8 3 -8 11 -13 17 -11 6
1 11 -2 11 -8 0 -5 4 -10 10 -10 5 0 8 6 6 13 -1 6 -1 9 1 4 3 -4 10 -4 15 -1
7 4 8 2 4 -4 -8 -13 6 -17 17 -5 10 10 107 11 107 1 0 -4 7 -8 15 -8 8 0 15 5
15 11 0 5 -5 7 -12 3 -7 -5 -8 -3 -3 5 5 9 12 7 27 -8 16 -18 38 -21 38 -5 0
3 -4 3 -9 -1 -5 -3 -13 0 -17 7 -4 7 -4 10 1 6 4 -4 15 -2 23 5 13 9 14 9 8 0
-4 -7 -3 -13 3 -13 6 0 8 -8 5 -18 -4 -11 -3 -13 3 -5 5 7 19 11 31 8 13 -2
20 0 17 6 -4 5 1 9 9 9 10 0 13 -6 10 -17 -5 -17 -5 -17 6 0 11 17 36 25 25 8
-3 -5 0 -13 6 -17 7 -4 9 -3 6 3 -4 6 0 13 8 17 8 3 14 2 12 -2 -1 -4 3 -8 8
-9 6 -2 10 2 10 8 0 7 8 15 18 18 17 6 17 9 4 19 -8 7 -19 12 -23 11 -5 -1
-11 0 -14 1 -3 1 -20 3 -37 5 -35 4 -41 -3 -21 -23 9 -9 9 -12 1 -12 -7 0 -15
5 -18 10 -3 6 -12 10 -18 10 -9 0 -9 -2 -1 -8 9 -5 8 -11 -2 -20 -9 -8 -14 -9
-14 -2 0 6 -6 8 -13 4 -9 -6 -9 -5 0 8 7 8 9 19 5 23 -4 5 -2 5 5 1 6 -3 14
-2 18 4 3 5 -1 10 -10 10 -9 0 -14 4 -11 9 4 5 0 11 -6 14 -10 3 -10 7 1 20
11 14 11 17 0 17 -11 0 -11 2 1 10 13 9 13 10 0 10 -13 0 -13 1 0 10 13 9 13
10 0 10 -13 0 -13 1 0 10 12 8 12 10 1 10 -11 0 -11 3 0 16 10 13 10 17 -2 25
-12 7 -12 10 0 18 9 6 10 11 2 15 -6 4 -11 13 -11 19 0 7 4 6 10 -3 5 -8 10
-10 10 -4 0 5 -5 15 -12 22 -9 9 -9 12 1 12 11 0 11 3 0 17 -10 11 -10 14 -1
9 6 -4 12 -2 12 3 0 6 -6 11 -12 11 -9 0 -8 4 2 10 13 9 13 10 0 10 -13 0 -13
1 0 10 13 9 13 10 0 10 -13 0 -13 1 0 10 13 9 13 10 0 10 -13 0 -13 1 0 10 13
9 13 10 0 10 -13 0 -13 1 0 10 13 9 13 10 0 10 -13 0 -13 1 0 10 13 9 13 10 0
10 -13 0 -13 1 0 10 13 9 13 10 0 10 -13 0 -13 1 0 10 12 8 12 10 1 10 -11 0
-11 3 0 16 10 13 10 17 -2 25 -12 7 -12 10 0 18 9 6 10 11 2 15 -6 4 -11 13
-11 19 0 7 4 6 10 -3 5 -8 10 -10 10 -4 0 5 -5 15 -12 22 -9 9 -9 12 1 12 11
0 11 3 0 17 -10 11 -10 14 -1 9 6 -4 12 -2 12 3 0 6 -6 11 -12 11 -9 0 -8 4 2
10 13 9 13 10 0 10 -13 0 -13 1 0 10 13 9 13 10 0 10 -13 0 -13 1 0 10 13 9
13 10 0 10 -13 0 -13 1 0 10 13 9 13 10 0 10 -13 0 -13 1 0 10 13 9 13 10 0
10 -13 0 -13 1 0 10 13 9 13 10 0 10 -13 0 -13 1 0 10 13 9 13 10 0 10 -13 0
-13 1 0 10 12 8 12 10 1 10 -11 0 -11 3 0 16 10 13 10 17 -2 25 -12 7 -12 10
0 18 9 6 10 11 2 15 -6 4 -11 13 -11 19 0 7 4 6 10 -3 5 -8 10 -10 10 -5 0 6
-5 16 -12 23 -9 9 -9 12 1 12 11 0 11 3 0 17 -10 11 -10 14 -1 9 6 -4 12 -2
12 3 0 6 -6 11 -12 11 -9 0 -8 4 2 10 13 9 13 10 0 10 -13 0 -13 1 0 10 13 9
13 10 0 10 -13 0 -13 1 0 10 13 9 13 10 0 10 -13 0 -13 1 0 10 13 9 13 10 0
10 -13 0 -13 1 0 10 10 6 11 10 3 10 -7 0 -13 5 -13 11 0 5 4 8 8 5 5 -3 9 1
9 9 0 8 -5 15 -11 15 -6 0 -4 5 4 10 12 8 12 10 1 10 -11 0 -11 3 0 17 8 9 9
14 3 10 -6 -3 -11 0 -11 8 0 8 3 12 6 10 4 -2 11 8 18 21 8 18 8 23 0 18 -7
-3 -3 3 9 13 14 12 20 29 20 50 -1 17 2 29 6 27 4 -3 8 3 9 13 0 10 3 13 6 6
7 -20 19 -15 19 7 0 11 -4 20 -8 20 -4 0 -8 5 -8 11 0 5 5 7 10 4 6 -3 10 3
10 14 0 11 6 24 13 28 6 4 12 15 12 23 0 8 6 14 14 12 12 -3 12 0 1 12 -8 10
-9 16 -2 16 6 0 9 7 5 15 -3 10 -1 15 7 13 7 -2 15 3 17 10 3 8 -1 10 -14 5
-10 -4 -2 8 17 27 21 20 27 31 16 27 -15 -6 -17 -5 -8 6 7 8 8 18 4 22 -4 5 1
5 11 2 11 -4 16 -3 12 3 -3 6 -1 10 4 10 6 0 11 5 11 11 0 5 -4 7 -10 4 -6 -3
-7 1 -4 9 3 9 10 13 15 10 5 -3 6 2 3 10 -7 17 13 59 25 51 5 -2 7 9 6 25 -2
22 2 30 14 30 13 0 13 2 2 9 -9 6 -10 10 -2 12 7 3 14 13 15 24 2 11 9 19 15
17 9 -2 9 3 1 19 -7 11 -9 23 -6 27 3 3 6 2 6 -1 0 -4 8 0 18 9 12 10 18 28
18 54 -1 21 3 36 8 33 5 -3 6 0 4 8 -3 8 4 24 15 37 20 21 14 29 -17 23 -5 -1
-4 5 4 13 15 19 24 21 14 4 -4 -7 -3 -8 5 -4 9 6 9 11 -1 24 -10 12 -10 14 0
8 6 -4 12 -3 12 3 0 5 -5 13 -10 16 -7 4 -6 13 1 27 8 16 8 22 -2 29 -11 6
-11 11 -2 20 9 9 7 16 -10 31 -12 10 -17 17 -11 16 7 -2 12 2 12 7 0 6 -5 9
-11 7 -6 -2 -4 5 4 14 9 12 9 15 2 10 -12 -7 -18 9 -14 40 1 13 -48 13 -69 0
-13 -9 -13 -8 -1 7 7 10 20 16 27 15 7 -2 13 2 13 7 1 6 -121 11 -341 13 -344
3 -425 -1 -397 -19 20 -13 31 -11 23 4 -4 7 -3 9 2 4 5 -5 10 -13 10 -18 3
-23 6 -23 20 1 8 14 13 17 10 8 -3 -10 -2 -18 2 -19 4 0 15 -2 25 -4 10 -2 17
3 17 13 0 13 3 12 16 -4 15 -19 16 -19 10 1 -5 17 -3 16 13 -5 14 -18 17 -28
9 -37 -7 -9 -7 -13 2 -13 9 0 10 -3 1 -13 -8 -10 -7 -17 1 -25 8 -8 8 -15 -2
-27 -8 -10 -9 -15 -1 -15 6 0 11 -5 11 -11 0 -5 -5 -7 -12 -3 -7 4 -8 3 -4 -5
4 -6 2 -19 -5 -27 -10 -12 -10 -15 0 -12 8 2 15 -5 16 -15 2 -9 -1 -15 -6 -11
-5 3 -9 0 -9 -5 0 -6 6 -11 13 -11 8 0 7 -4 -3 -10 -12 -8 -12 -10 -1 -10 10
0 11 -3 2 -13 -7 -10 -7 -17 0 -24 8 -8 8 -17 0 -32 -8 -15 -9 -21 -1 -21 6 0
8 -5 5 -10 -4 -6 -12 -8 -18 -4 -7 3 -4 -1 6 -9 19 -16 24 -32 5 -21 -7 4 -8
3 -4 -5 4 -6 2 -19 -6 -28 -8 -10 -8 -14 -1 -10 6 4 14 3 17 -2 4 -5 2 -12 -3
-15 -10 -7 -9 -25 3 -44 4 -7 2 -19 -4 -27 -8 -9 -8 -15 -2 -15 10 0 9 -37 -1
-85 -3 -11 0 -26 6 -32 6 -9 5 -18 -3 -28 -7 -8 -8 -15 -2 -15 11 0 11 -49 -1
-67 -5 -8 -4 -13 2 -13 6 0 11 -5 11 -11 0 -5 -5 -7 -12 -3 -7 4 -8 3 -4 -5 4
-6 2 -19 -5 -27 -10 -12 -10 -15 0 -12 8 2 15 -5 16 -15 2 -9 -1 -15 -6 -11
-5 3 -9 0 -9 -5 0 -6 6 -11 13 -11 8 0 7 -4 -3 -10 -12 -8 -12 -10 -1 -10 10
0 11 -3 2 -13 -7 -10 -7 -17 0 -24 8 -8 8 -17 0 -32 -8 -15 -9 -21 -1 -21 6 0
8 -5 5 -10 -4 -6 -12 -8 -18 -4 -7 3 -4 -1 6 -9 19 -16 24 -32 5 -21 -7 4 -8
3 -4 -5 4 -6 2 -19 -6 -28 -8 -10 -8 -14 -1 -10 6 4 14 3 17 -2 4 -5 2 -12 -3
-15 -10 -7 -9 -25 3 -44 4 -7 2 -19 -4 -27 -8 -9 -8 -15 -2 -15 10 0 9 -37 -1
-85 -3 -11 0 -26 6 -32 6 -9 5 -18 -3 -28 -7 -8 -8 -15 -2 -15 11 0 11 -49 -1
-67 -5 -8 -4 -13 2 -13 6 0 11 -5 11 -11 0 -5 -5 -7 -12 -3 -7 4 -8 3 -4 -5 4
-6 2 -19 -5 -27 -10 -12 -10 -15 0 -12 8 2 15 -5 16 -15 2 -9 -1 -15 -6 -11
-5 3 -9 0 -9 -5 0 -6 6 -11 13 -11 8 0 7 -4 -3 -10 -12 -8 -12 -10 -1 -10 10
0 11 -3 2 -13 -7 -10 -7 -17 0 -24 8 -8 8 -17 0 -32 -9 -16 -9 -21 0 -21 8 0
8 -4 -1 -15 -9 -10 -9 -15 -1 -15 6 0 2 -9 -9 -20 -11 -11 -20 -29 -20 -41 0
-11 -4 -18 -9 -15 -10 7 -9 -13 1 -29 4 -6 -3 -17 -15 -25 -21 -12 -21 -12 -7
6 14 17 13 18 -1 6 -10 -7 -14 -21 -12 -35 3 -14 -2 -31 -11 -40 -9 -9 -18
-20 -19 -24 -1 -4 -6 -7 -11 -5 -5 2 -4 -4 4 -12 10 -14 10 -16 -6 -16 -16 0
-17 -2 -4 -10 9 -6 10 -10 3 -10 -6 0 -10 -9 -8 -19 3 -15 -1 -18 -13 -14 -14
5 -15 4 -4 -8 10 -11 8 -17 -10 -32 -13 -10 -16 -15 -8 -11 8 4 3 -8 -12 -28
-15 -19 -24 -38 -21 -42 3 -3 0 -12 -6 -20 -7 -8 -10 -24 -6 -36 4 -12 2 -20
-5 -20 -6 0 -8 -4 -5 -10 3 -6 -1 -7 -10 -4 -11 5 -14 2 -8 -12 4 -12 3 -15
-6 -9 -11 6 -11 3 0 -16 11 -22 11 -23 -5 -10 -14 12 -16 12 -11 -2 4 -8 2
-18 -4 -22 -6 -3 -11 -11 -11 -16 0 -6 5 -7 12 -3 7 4 8 3 4 -4 -4 -7 -15 -12
-24 -13 -10 0 -12 -3 -5 -5 7 -3 9 -12 6 -20 -3 -7 -8 -12 -12 -9 -4 2 -7 -6
-7 -18 1 -16 -4 -21 -19 -20 -11 1 -14 0 -7 -3 10 -5 10 -9 0 -22 -10 -12 -10
-14 -1 -8 9 5 11 2 7 -8 -3 -9 -11 -13 -17 -9 -6 3 -7 1 -3 -6 10 -15 -13 -43
-27 -34 -6 3 -7 1 -3 -6 6 -9 11 -9 22 0 26 21 15 -2 -14 -29 -15 -15 -27 -25
-25 -23 2 2 -3 11 -9 19 -16 19 -19 44 -5 36 8 -5 7 -2 0 7 -7 7 -13 23 -13
36 0 13 -5 23 -11 23 -8 0 -7 5 1 15 11 13 10 14 -3 9 -12 -4 -14 -1 -10 15 3
12 1 21 -5 21 -5 0 -13 7 -16 16 -4 11 -2 15 7 11 8 -3 14 1 14 8 0 7 -8 10
-21 7 -19 -5 -20 -4 -6 13 9 11 10 16 3 11 -8 -4 -13 -2 -13 4 0 6 -4 8 -10 5
-6 -3 -7 1 -4 9 3 9 11 13 18 9 8 -5 8 -3 -1 8 -6 8 -12 19 -12 24 -1 6 -6 10
-13 10 -6 0 -13 7 -15 15 -4 13 -3 13 6 0 9 -13 11 -13 11 2 0 9 -5 18 -11 20
-6 2 -12 16 -12 31 -1 15 -6 27 -11 27 -5 0 -2 8 5 17 12 15 12 16 -5 10 -15
-6 -17 -4 -13 13 3 11 2 18 -2 16 -4 -3 -12 4 -19 14 -8 14 -8 21 -1 26 8 4 7
9 -2 15 -11 7 -11 9 -1 9 7 0 -2 14 -20 31 -18 17 -28 28 -22 25 15 -8 26 21
12 30 -7 5 -8 2 -3 -6 5 -9 4 -11 -4 -6 -9 6 -9 11 0 22 8 10 8 14 1 14 -7 0
-9 7 -5 17 4 10 2 14 -4 10 -6 -4 -14 0 -17 9 -3 8 -2 12 4 9 15 -10 12 5 -6
22 -8 9 -13 21 -10 29 3 7 1 14 -4 16 -6 2 -11 16 -12 32 -1 15 -8 31 -16 33
-10 4 -10 9 -1 19 10 12 9 13 -5 8 -17 -7 -23 11 -6 21 13 8 1 35 -15 35 -8 0
-12 8 -10 20 2 11 -1 20 -7 20 -6 0 -6 6 2 15 11 13 10 14 -2 10 -11 -5 -15 1
-15 19 0 14 4 23 9 20 6 -4 2 5 -7 20 -17 25 -34 38 -19 14 4 -6 3 -8 -4 -4
-6 3 -10 19 -8 34 1 15 -5 32 -14 39 -13 11 -13 12 5 13 16 0 17 2 5 9 -8 6
-19 7 -25 3 -5 -3 -4 2 4 12 12 15 12 17 0 14 -9 -2 -14 5 -13 20 0 17 -4 21
-15 18 -14 -5 -14 -4 0 6 15 11 15 13 -3 27 -22 19 -30 51 -15 69 7 9 5 11 -9
6 -10 -4 -16 -3 -11 1 4 5 0 19 -8 32 -18 27 -9 31 12 6 13 -16 13 -16 4 4 -6
12 -16 23 -22 25 -7 2 -13 24 -14 48 -2 38 -5 44 -21 42 -16 -3 -16 -2 -3 14
8 11 9 15 2 10 -9 -5 -13 0 -13 14 0 13 -4 19 -11 14 -8 -5 -8 -1 0 14 8 16 7
21 -4 26 -8 3 -15 11 -15 18 0 9 3 8 10 -2 5 -8 10 -10 10 -5 0 18 -22 34 -39
28 -11 -4 -10 -1 4 10 11 9 15 17 8 17 -7 0 -10 7 -6 17 4 11 3 14 -5 9 -16
-10 -15 6 1 23 10 11 9 13 -6 8 -13 -5 -16 -3 -10 6 13 21 12 36 -3 30 -10 -3
-14 3 -14 20 0 14 -6 27 -14 30 -11 4 -12 14 -6 41 4 21 4 34 -1 30 -5 -3 -14
-2 -20 2 -8 4 -7 9 2 15 11 7 11 9 -3 9 -17 0 -19 15 -4 39 7 10 6 12 -4 6
-10 -6 -12 -3 -7 14 4 17 3 20 -8 11 -9 -8 -14 -6 -19 5 -4 11 -2 14 7 9 8 -6
8 -3 -1 9 -8 9 -11 21 -7 27 3 5 1 10 -6 10 -7 0 -9 10 -6 26 3 19 1 24 -11
19 -12 -4 -13 -3 -3 9 10 12 9 17 -8 28 -15 9 -17 15 -9 25 7 9 7 13 -1 13 -6
0 -11 5 -11 11 0 5 6 7 13 4 6 -4 4 0 -5 8 -10 8 -14 18 -10 22 4 5 -2 5 -13
2 -20 -7 -20 -7 -1 8 19 15 19 15 -5 15 -17 0 -20 3 -11 9 17 10 15 23 -4 34
-13 7 -13 11 -2 25 11 13 11 15 -4 10 -12 -5 -16 -1 -13 18 1 16 -3 24 -14 24
-13 0 -14 2 -2 9 12 8 12 14 0 43 -7 18 -13 37 -11 41 1 5 -2 6 -8 2 -6 -3 -7
-11 -4 -17 5 -7 2 -8 -5 -4 -7 5 -10 10 -7 13 3 3 1 14 -4 24 -7 12 -7 20 0
24 16 10 12 28 -5 21 -13 -5 -14 -2 -4 15 12 24 -3 50 -16 28 -5 -8 -4 -10 3
-5 7 4 12 2 12 -3 0 -6 -4 -11 -8 -11 -17 0 -21 13 -12 31 10 17 1 18 -179 18
l-189 0 6 -22z m2046 1 c16 13 18 13 8 1 -6 -9 -9 -19 -5 -22 3 -4 12 1 20 11
10 13 12 13 8 2 -4 -12 1 -16 19 -16 14 0 22 4 19 9 -3 5 4 6 17 2 15 -5 20
-4 16 4 -4 6 -2 11 4 11 6 0 10 -8 8 -17 -2 -10 3 -17 10 -15 12 2 16 -10 13
-37 -2 -7 3 -10 9 -6 14 9 9 -26 -5 -38 -6 -5 -4 -7 5 -4 8 2 14 10 13 16 -2
6 2 11 8 11 6 0 9 -7 6 -15 -4 -8 -2 -17 3 -20 5 -3 8 -16 6 -28 -2 -12 2 -28
8 -36 9 -12 8 -13 -3 -6 -11 6 -13 1 -9 -23 4 -25 0 -33 -15 -38 -11 -3 -15
-9 -10 -13 5 -3 12 -16 15 -28 5 -21 4 -22 -15 -11 -19 10 -20 9 -9 -4 10 -12
10 -18 1 -23 -8 -6 -7 -10 2 -16 8 -5 9 -9 3 -9 -6 0 -11 -15 -10 -32 0 -26
-3 -33 -19 -33 -11 -1 -19 -7 -17 -14 1 -7 -3 -20 -10 -29 -9 -10 -9 -13 -1
-9 6 4 14 3 18 -3 3 -5 -1 -10 -9 -10 -9 0 -16 -7 -16 -16 0 -8 -4 -13 -9 -9
-5 3 -12 1 -16 -5 -3 -5 -1 -10 4 -10 6 0 11 -5 11 -11 0 -5 -4 -7 -10 -4 -6
3 -7 -1 -4 -9 4 -9 1 -16 -6 -16 -9 0 -9 -4 1 -17 12 -14 12 -16 0 -8 -11 6
-13 4 -8 -8 4 -11 2 -14 -9 -10 -14 5 -16 1 -17 -48 -1 -17 -6 -25 -13 -22 -7
2 -15 -1 -20 -8 -4 -7 -3 -10 4 -5 6 3 13 2 17 -4 3 -5 -1 -10 -9 -10 -8 0
-18 -5 -22 -12 -4 -7 -3 -8 4 -4 8 5 10 2 6 -8 -3 -9 -11 -13 -18 -9 -6 4 -4
-2 4 -12 14 -17 13 -18 -3 -12 -15 6 -16 4 -6 -16 6 -12 8 -19 4 -15 -12 11
-35 -40 -28 -59 4 -10 2 -14 -4 -10 -6 4 -16 0 -23 -8 -11 -13 -10 -14 6 -9
16 6 16 4 -3 -15 -25 -24 -30 -37 -10 -25 8 6 8 3 -1 -9 -8 -9 -11 -25 -7 -38
6 -19 5 -20 -8 -8 -8 8 -12 19 -9 24 3 6 -2 4 -11 -4 -19 -15 -22 -8 -7 20 8
13 7 19 0 19 -7 0 -7 7 1 21 6 12 7 19 1 15 -6 -3 -9 4 -8 18 0 13 4 22 9 19
4 -2 7 0 7 6 0 5 -6 12 -12 15 -10 5 -10 7 0 12 10 5 10 9 0 22 -10 12 -10 14
0 8 6 -4 12 -3 12 3 0 5 -6 12 -12 15 -10 5 -10 7 0 12 10 5 10 9 0 22 -10 12
-10 14 0 8 6 -4 12 -2 12 3 0 6 -6 11 -12 11 -9 0 -8 4 2 10 13 9 13 10 0 10
-13 0 -13 1 0 10 13 9 13 10 0 10 -13 0 -13 1 0 10 13 9 13 10 0 10 -13 0 -13
1 0 10 13 9 13 10 0 10 -13 0 -13 1 0 10 13 9 13 10 0 10 -13 0 -13 1 0 10 13
9 13 10 0 10 -13 0 -13 1 0 10 13 9 13 10 0 10 -13 0 -13 1 0 10 12 8 12 10 1
10 -11 0 -11 3 0 16 10 13 10 17 -2 25 -12 7 -12 10 0 18 9 6 10 11 2 15 -6 4
-11 13 -11 19 0 7 4 6 10 -3 5 -8 10 -10 10 -4 0 5 -5 15 -12 22 -9 9 -9 12 1
12 11 0 11 3 0 17 -10 11 -10 14 -1 9 6 -4 12 -2 12 3 0 6 -6 11 -12 11 -9 0
-8 4 2 10 13 9 13 10 0 10 -13 0 -13 1 0 10 13 9 13 10 0 10 -13 0 -13 1 0 10
13 9 13 10 0 10 -13 0 -13 1 0 10 13 9 13 10 0 10 -13 0 -13 1 0 10 13 9 13
10 0 10 -13 0 -13 1 0 10 13 9 13 10 0 10 -13 0 -13 1 0 10 13 9 13 10 0 10
-13 0 -13 1 0 10 12 8 12 10 1 10 -11 0 -11 3 0 16 10 13 10 17 -2 25 -12 7
-12 10 0 18 9 6 10 11 2 15 -6 4 -11 13 -11 19 0 7 4 6 10 -3 5 -8 10 -10 10
-4 0 5 -5 15 -12 22 -9 9 -9 12 1 12 11 0 11 3 0 17 -12 15 -12 16 1 8 12 -6
13 -5 3 6 -7 7 -13 17 -13 22 0 4 6 5 13 1 7 -5 6 0 -3 11 -11 14 -11 17 -1
11 10 -7 12 -3 6 15 -7 23 -7 24 9 4 14 -18 15 -18 16 -2 0 9 5 17 11 17 5 0
8 -4 4 -9 -3 -5 -1 -12 5 -16 5 -3 10 -1 10 6 0 8 4 8 15 -1 18 -15 20 0 3 20
-7 7 -2 6 11 -3 23 -15 26 -15 45 1z m-1616 -183 c-3 -3 -9 2 -12 12 -6 14 -5
15 5 6 7 -7 10 -15 7 -18z m1800 -100 c-3 -3 -9 2 -12 12 -6 14 -5 15 5 6 7
-7 10 -15 7 -18z m-607 -1428 c-10 -9 -11 -8 -5 6 3 10 9 15 12 12 3 -3 0 -11
-7 -18z m-991 7 c0 -8 -19 -13 -24 -6 -3 5 1 9 9 9 8 0 15 -2 15 -3z m830
-374 c0 -5 -5 -10 -11 -10 -5 0 -7 5 -4 10 3 6 8 10 11 10 2 0 4 -4 4 -10z
m548 -220 c12 -13 13 -12 7 5 -5 15 -3 17 6 8 6 -6 19 -9 28 -7 9 3 5 -1 -9
-9 -25 -15 -51 -10 -65 13 -10 16 18 7 33 -10z"/>
<path d="M426 2927 c3 -10 9 -15 12 -12 3 3 0 11 -7 18 -10 9 -11 8 -5 -6z"/>
<path d="M458 2823 c6 -2 9 -10 6 -15 -4 -7 -2 -8 5 -4 13 9 5 26 -12 25 -9 0
-8 -2 1 -6z"/>
<path d="M2646 2732 c-3 -5 1 -9 9 -9 8 0 12 4 9 9 -3 4 -7 8 -9 8 -2 0 -6 -4
-9 -8z"/>
<path d="M663 2263 c4 -3 1 -13 -6 -22 -11 -14 -10 -14 5 -2 16 12 16 31 1 31
-4 0 -3 -3 0 -7z"/>
<path d="M700 2131 c0 -6 4 -13 10 -16 6 -3 7 1 4 9 -7 18 -14 21 -14 7z"/>
<path d="M1196 1821 c-3 -4 1 -17 10 -27 14 -18 15 -18 5 2 -6 12 -7 24 -4 28
3 3 4 6 0 6 -3 0 -8 -4 -11 -9z"/>
<path d="M1436 1118 c3 -4 9 -8 15 -8 5 0 9 4 9 8 0 5 -7 9 -15 9 -8 0 -12 -4
-9 -9z"/>
<path d="M1130 899 c0 -5 5 -7 10 -4 6 3 10 8 10 11 0 2 -4 4 -10 4 -5 0 -10
-5 -10 -11z"/>
<path d="M1180 800 c0 -5 5 -10 11 -10 5 0 7 5 4 10 -3 6 -8 10 -11 10 -2 0
-4 -4 -4 -10z"/>
<path d="M1865 762 c0 -14 7 -28 15 -30 8 -3 17 -8 20 -12 3 -4 13 3 23 16 10
13 13 24 7 24 -6 0 -9 4 -6 8 3 5 0 9 -7 10 -7 0 -21 3 -33 5 -17 4 -21 1 -19
-21z m48 -17 c-4 -11 -9 -13 -18 -5 -6 5 -14 7 -18 4 -4 -5 -3 13 2 34 1 1 10
-2 21 -8 11 -6 17 -16 13 -25z"/>
<path d="M1887 759 c7 -7 15 -10 18 -7 3 3 -2 9 -12 12 -14 6 -15 5 -6 -5z"/>
<path d="M1980 781 c16 -11 8 -15 -25 -11 -11 1 -17 -2 -12 -6 4 -4 0 -18 -9
-32 -11 -17 -12 -22 -3 -16 21 12 53 13 61 0 5 -8 8 -7 8 2 0 8 5 10 13 6 6
-4 4 2 -6 13 -10 11 -17 26 -15 33 2 7 -4 15 -12 17 -13 4 -13 3 0 -6z m20
-44 c0 -1 -12 -3 -28 -3 -15 -1 -21 1 -14 3 6 3 9 9 6 15 -4 6 2 5 15 -1 11
-7 21 -13 21 -14z"/>
<path d="M2149 722 c-13 -15 -12 -16 3 -4 13 10 17 10 21 0 4 -9 6 -9 6 -1 2
20 -16 24 -30 5z"/>
<path d="M1630 580 c0 -5 5 -10 11 -10 5 0 7 5 4 10 -3 6 -8 10 -11 10 -2 0
-4 -4 -4 -10z"/>
<path d="M1378 253 c7 -3 16 -2 19 1 4 3 -2 6 -13 5 -11 0 -14 -3 -6 -6z"/>
<path d="M1541 123 c-10 -26 -10 -27 4 -9 8 11 15 23 15 28 0 15 -7 8 -19 -19z"/>
</g>
</svg>
